HIERARCHY
ROOT Hips
{
     OFFSET 21.05710 96.85650 -40.05100
     CHANNELS 6 Xposition Yposition Zposition Zrotation Xrotation Yrotation
     JOINT Spine
     {
          OFFSET 0.00000 11.89050 0.00000
          CHANNELS 3 Zrotation Xrotation Yrotation
          JOINT Spine1
          {
               OFFSET 0.00000 25.65740 0.12766
               CHANNELS 3 Zrotation Xrotation Yrotation
               JOINT HEad
               {
                    OFFSET 0.00000 8.73416 0.01134
                    CHANNELS 3 Zrotation Xrotation Yrotation
                    End Site
                    {
                         OFFSET -0.29000 12.77420 2.51395
                    }
               }
               JOINT LeftShoulder1
               {
                    OFFSET 8.99000 -0.36225 -0.22000
                    CHANNELS 3 Zrotation Xrotation Yrotation
                    JOINT LeftArm
                    {
                         OFFSET 10.28270 -0.00338 0.32212
                         CHANNELS 3 Zrotation Xrotation Yrotation
                         JOINT LeftForeArm
                         {
                              OFFSET 32.76690 0.09914 -1.42434
                              CHANNELS 3 Zrotation Xrotation Yrotation
                              JOINT LeftHand
                              {
                                   OFFSET 27.56430 0.08536 1.02216
                                   CHANNELS 3 Zrotation Xrotation Yrotation
                                   End Site
                                   {
                                        OFFSET 16.74430 -0.60000 1.50291
                                   }
                              }
                         }
                    }
               }
               JOINT RightShoulder
               {
                    OFFSET -8.99000 -0.36225 -0.22000
                    CHANNELS 3 Zrotation Xrotation Yrotation
                    JOINT RightArm
                    {
                         OFFSET -10.28270 -0.00338 0.32212
                         CHANNELS 3 Zrotation Xrotation Yrotation
                         JOINT RightForeArm
                         {
                              OFFSET -32.89710 0.09914 -1.42434
                              CHANNELS 3 Zrotation Xrotation Yrotation
                              JOINT RightHand
                              {
                                   OFFSET -27.49210 0.08536 1.02216
                                   CHANNELS 3 Zrotation Xrotation Yrotation
                                   End Site
                                   {
                                        OFFSET -16.63120 -0.60000 1.50291
                                   }
                              }
                         }
                    }
               }
          }
     }
     JOINT LeftUpLeg
     {
          OFFSET 8.94580 -8.66707 0.10165
          CHANNELS 3 Zrotation Xrotation Yrotation
          JOINT LeftLeg
          {
               OFFSET 0.00000 -44.42270 1.37270
               CHANNELS 3 Zrotation Xrotation Yrotation
               JOINT LeftFoot
               {
                    OFFSET -0.25355 -42.09240 -1.46059
                    CHANNELS 3 Zrotation Xrotation Yrotation
                    JOINT LeftToes
                    {
                         OFFSET -0.04000 -4.41509 8.49910
                         CHANNELS 3 Zrotation Xrotation Yrotation
                         End Site
                         {
                              OFFSET 0.08000 -0.04745 9.77979
                         }
                    }
               }
          }
     }
     JOINT RightUpLeg
     {
          OFFSET -8.94580 -8.66707 0.10165
          CHANNELS 3 Zrotation Xrotation Yrotation
          JOINT RightLeg
          {
               OFFSET 0.00000 -44.42270 1.37270
               CHANNELS 3 Zrotation Xrotation Yrotation
               JOINT RightFoot
               {
                    OFFSET 0.25355 -42.09240 -1.46059
                    CHANNELS 3 Zrotation Xrotation Yrotation
                    JOINT RightToes
                    {
                         OFFSET 0.04000 -4.41509 8.49910
                         CHANNELS 3 Zrotation Xrotation Yrotation
                         End Site
                         {
                              OFFSET -0.08000 -0.13745 9.77979
                         }
                    }
               }
          }
     }
}
MOTION
Frames: 14
Frame Time: 0.01667
21.05710 96.85650 -40.05100 -6.34696 -11.93410 -25.13370 6.56945 6.77631 0.36670 3.91616 14.27170 1.49099 -9.01529 2.82393 4.85427 0.00000 0.00000 0.00000 -95.62470 -38.72830 -64.83920 23.32870 34.96120 -113.64900 22.45710 13.44080 23.00120 11.51290 0.98063 4.00600 74.34750 -14.74060 77.64680 8.98792 32.47500 91.51280 2.89387 10.27560 7.67785 18.27620 -10.58260 2.83811 -9.56025 16.47800 19.42970 -7.20299 0.26809 0.48202 7.34937 10.51400 -2.07960 -6.22325 -4.54736 -5.41035 7.40825 37.67420 -14.43470 8.64203 -28.68970 1.34625 8.19895 26.43090 -18.41080 
20.97770 96.56070 -39.74760 -6.64131 -12.28880 -25.19080 6.56760 6.91426 0.32221 3.82713 14.56100 1.50147 -8.96311 2.54474 4.94940 0.00000 0.00000 0.00000 -94.71890 -38.22550 -64.61390 23.06860 34.86430 -111.96900 22.78370 13.44970 22.76820 11.59410 1.01493 4.21214 74.48120 -14.40690 77.89380 8.75575 32.24850 89.89450 2.79313 10.27550 8.01555 18.35370 -10.24070 3.37188 -9.48306 16.80090 19.05740 -6.89689 0.69887 0.48399 8.45099 12.13180 -3.65349 -6.14056 -4.34079 -5.27524 7.55959 38.50960 -14.69380 7.82540 -28.61820 1.18390 7.33855 24.64740 -17.48520 
20.91950 96.26520 -39.44350 -6.96104 -12.69410 -25.23070 6.51675 7.12005 0.18368 3.81111 14.97060 1.31557 -9.02750 2.09912 5.19295 0.00000 0.00000 0.00000 -93.52310 -37.67600 -64.02460 22.48410 34.37250 -110.03800 22.92440 13.41440 22.47030 11.53050 1.03915 4.40198 74.59300 -13.97940 78.25340 8.58945 31.99030 87.91240 2.68025 10.27470 8.39537 18.50710 -10.09760 3.84096 -9.61508 17.85170 19.00000 -6.33750 0.92769 0.45427 8.49455 12.34090 -4.98589 -6.04254 -4.03164 -5.12236 7.65160 39.25380 -15.00140 7.00893 -28.40250 1.01419 6.40718 22.61600 -16.39240 
20.89230 95.98450 -39.13900 -7.29003 -13.12450 -25.26170 6.45413 7.36389 -0.04091 3.86453 15.45090 0.94270 -9.22561 1.61870 5.59355 0.00000 0.00000 0.00000 -92.83190 -37.58110 -63.40850 22.04730 34.04910 -108.74000 22.83030 13.36310 22.28500 11.30300 1.04827 4.55314 74.02620 -13.18350 78.48850 8.23402 30.90360 86.05140 2.67729 10.28340 8.69843 18.76710 -10.23120 4.09052 -9.99393 19.47750 19.30420 -5.80767 1.14929 0.42430 7.73737 11.52570 -5.85449 -5.96160 -3.64436 -4.96128 7.70669 39.90790 -15.28680 6.38283 -28.17440 0.88306 5.56911 20.67240 -15.35200 
20.90650 95.73740 -38.83020 -7.60462 -13.54130 -25.32470 6.38626 7.61244 -0.29840 3.94221 15.94120 0.48583 -9.47930 1.19789 6.06222 0.00000 0.00000 0.00000 -92.68630 -37.92550 -62.81390 21.91450 33.96060 -108.39200 22.52280 13.31800 22.30620 11.00440 1.04093 4.62093 73.11920 -12.25980 78.64870 7.83436 29.43590 84.51800 2.74183 10.29690 8.90721 19.15820 -10.70730 3.99281 -10.71060 21.54060 20.12820 -5.50425 1.53566 0.41707 6.81807 10.48330 -6.34473 -5.93249 -3.22828 -4.80660 7.73316 40.47400 -15.46050 6.05387 -28.02320 0.81370 4.92048 19.08510 -14.48630 
20.97350 95.53890 -38.50150 -7.87882 -13.89100 -25.48330 6.30161 7.83320 -0.52252 3.99166 16.37710 0.07455 -9.69497 0.87541 6.46783 0.00000 0.00000 0.00000 -93.00180 -38.60470 -62.27750 21.93950 34.16270 -109.00300 22.08890 13.27270 22.43380 10.74040 1.01960 4.57583 72.52910 -11.56880 78.84960 7.61752 28.40840 83.40110 2.82080 10.31010 9.04156 19.68360 -11.53600 3.54602 -11.84070 23.90720 21.58610 -5.46506 2.16504 0.43997 6.22348 9.80994 -6.62499 -5.98621 -2.84567 -4.66624 7.73595 40.93880 -15.45460 5.95116 -27.95690 0.79129 4.46674 17.93040 -13.80850 
21.10330 95.39630 -38.12560 -8.09695 -14.12610 -25.82090 6.19507 7.99821 -0.66721 3.98534 16.70120 -0.19925 -9.85689 0.67260 6.74430 0.00000 0.00000 0.00000 -93.65120 -39.55770 -61.78570 21.86020 34.68500 -110.40700 21.60850 13.20530 22.48730 10.56300 0.98952 4.42955 72.30470 -11.16430 79.05710 7.57307 27.92250 82.82040 2.96372 10.32830 9.09599 20.31060 -12.62840 2.97652 -13.29660 26.42480 23.49180 -5.60400 3.05972 0.49000 5.94174 9.49589 -6.77877 -6.14028 -2.54596 -4.55228 7.67601 41.28440 -15.17940 5.93621 -27.92850 0.78711 4.15875 17.13000 -13.24950 
21.30050 95.31400 -37.67120 -8.26171 -14.21470 -26.44080 6.06841 8.09345 -0.70795 3.92504 16.88190 -0.28512 -10.03360 0.58421 6.92752 0.00000 0.00000 0.00000 -93.59260 -40.19420 -60.82090 21.40510 34.65790 -111.93800 21.04160 13.10790 22.45350 10.48000 0.95489 4.20892 72.35170 -10.99750 79.26370 7.65861 27.93360 82.75520 3.18462 10.35220 9.04577 20.98650 -13.81620 2.66445 -14.77400 28.94910 25.33720 -5.81122 4.14568 0.55757 5.70779 9.20551 -6.72777 -6.38835 -2.35510 -4.47233 7.46116 41.49230 -14.49570 5.95235 -27.89530 0.78845 3.95218 16.59180 -12.74850 
21.56410 95.30020 -37.11710 -8.38623 -14.13340 -27.43750 5.91566 8.12489 -0.64199 3.83341 16.92560 -0.17992 -10.31880 0.55669 7.13919 0.00000 0.00000 0.00000 -92.34930 -40.26800 -59.15020 20.61050 33.62510 -113.31300 20.34840 12.98740 22.39950 10.44750 0.91722 3.94425 72.52150 -10.93620 79.50170 7.81030 28.28690 83.08300 3.44792 10.37590 8.86238 21.67220 -14.92140 2.90083 -15.89260 31.34850 26.60510 -6.03938 5.21899 0.63078 5.36683 8.72888 -6.36582 -6.70361 -2.28784 -4.39922 7.01492 41.54100 -13.27800 6.08248 -27.87830 0.81165 3.86676 16.38390 -12.37030 
21.88980 95.36520 -36.46270 -8.47421 -13.86640 -28.84860 5.71820 8.11135 -0.49695 3.73504 16.86370 0.05514 -10.75550 0.48924 7.55034 0.00000 0.00000 0.00000 -90.77320 -40.43880 -57.28240 19.79040 32.31330 -114.94500 19.56500 12.84170 22.27590 10.37980 0.87890 3.68636 72.68640 -10.80330 79.81030 7.93092 28.77690 83.63790 3.67383 10.39090 8.58255 22.36070 -15.79990 3.67361 -16.42830 33.41300 27.11710 -6.25309 6.09071 0.69677 4.81305 7.94858 -5.82300 -7.05895 -2.36024 -4.26025 6.35193 41.40750 -11.53430 6.49094 -27.94780 0.89091 3.97904 16.73420 -12.24390 
22.26910 95.51450 -35.72730 -8.51223 -13.41910 -30.63390 5.45168 8.07138 -0.32584 3.63466 16.73010 0.31009 -11.32100 0.28752 8.30698 0.00000 0.00000 0.00000 -88.85200 -40.86620 -55.31790 19.01740 30.70090 -116.69000 18.62860 12.65320 22.01990 10.21290 0.84612 3.50194 72.74060 -10.44270 80.19470 7.95489 29.21360 84.23870 3.78702 10.39330 8.32191 23.06590 -16.34750 4.63897 -16.45300 34.82420 27.10480 -6.36125 6.68924 0.73911 3.94195 6.77738 -5.38973 -7.44134 -2.57760 -3.96640 5.57793 41.05960 -9.45432 7.26736 -28.10560 1.04476 4.32167 17.73610 -12.36260 
22.69190 95.74210 -34.93530 -8.47721 -12.83100 -32.70650 5.09809 8.01505 -0.18333 3.50686 16.54710 0.47935 -11.97770 -0.05769 9.46468 0.00000 0.00000 0.00000 -86.54610 -41.69640 -53.34290 18.17760 28.91330 -118.27700 17.52550 12.39210 21.41490 9.94876 0.82561 3.44039 72.61020 -9.77962 80.61010 7.92236 29.49010 84.72330 3.77004 10.38620 8.18642 23.77300 -16.50730 5.35794 -16.18810 35.32130 26.93380 -6.27797 6.99000 0.74323 2.88946 5.40479 -5.17529 -7.85243 -2.92113 -3.49017 4.78215 40.47040 -7.25703 8.30903 -28.22670 1.24848 4.81777 19.15840 -12.57390 
23.15090 96.02530 -34.10110 -8.34665 -12.16490 -34.98640 4.66030 7.94450 -0.10004 3.31095 16.32610 0.51430 -12.68430 -0.51058 10.99830 0.00000 0.00000 0.00000 -83.84940 -43.04250 -51.45690 17.07490 27.23940 -119.37700 16.28840 12.03750 20.17590 9.62170 0.81913 3.50831 72.28810 -8.83295 80.98850 7.93437 29.60620 85.00890 3.65591 10.37420 8.19625 24.40980 -16.27620 5.58791 -15.72790 34.86260 26.81260 -6.00058 6.98296 0.70747 2.06956 4.32680 -5.02724 -8.30133 -3.37094 -2.91753 3.93861 39.66360 -4.99625 9.39561 -28.18030 1.44952 5.35160 20.67220 -12.74370 
23.64520 96.32980 -33.22800 -8.11521 -11.46610 -37.43610 4.16781 7.85943 -0.07090 3.02866 16.07610 0.44020 -13.35940 -1.09493 12.85040 0.00000 0.00000 0.00000 -80.86820 -45.02670 -49.84870 15.62060 26.06140 -119.71700 14.99920 11.61060 18.18580 9.24802 0.82133 3.66648 71.82350 -7.67925 81.28950 8.03750 29.61980 85.11730 3.48346 10.35970 8.31004 24.91690 -15.69050 5.31727 -15.06020 33.59070 26.85830 -5.59714 6.71597 0.64464 1.92367 4.06895 -4.75893 -8.78288 -3.93743 -2.39185 2.94985 38.71840 -2.56959 10.38070 -27.95620 1.61442 5.86105 22.11220 -12.83340 
